<?xml version="1.0" encoding="utf-8"?>
<!-- Generator: Adobe Illustrator 23.1.1, SVG Export Plug-In . SVG Version: 6.00 Build 0)  -->
<svg version="1.1" id="Layer_1" xmlns="http://www.w3.org/2000/svg" xmlns:xlink="http://www.w3.org/1999/xlink" x="0px" y="0px"
	 width="212px" height="46px" viewBox="0 0 212 46" style="enable-background:new 0 0 212 46;" xml:space="preserve">
<style type="text/css">
	.st0{fill:#F93D49;}
	.st1{fill:#1D1C1A;}
	.st2{fill:#1F7776;}
	.st3{fill:#E01024;}
	.st4{fill:#F29100;}
	.st5{fill:#F9A33D;}
	.st6{fill:#1B6664;}
</style>
<g>
	<circle class="st0" cx="9.1" cy="36.4" r="9.1"/>
	<g>
		<path class="st1" d="M132.2,12.3h-1.9l-0.6-2.4h-3.4l-0.6,2.4h-1.8l2.9-9.9h2.6L132.2,12.3z M128,3.6l-1.3,4.7h2.5L128,3.6z"/>
		<path class="st1" d="M136.1,6.3v5.9h-1.8V6.3h-1.4V5.1l1.4-0.2V4.4c0-0.8,0.3-1.5,0.7-2s1.2-0.7,2-0.7c0.2,0,0.5,0,0.7,0.1
			c0.2,0,0.5,0.1,0.7,0.2l-0.3,1.4c-0.2,0-0.3-0.1-0.5-0.1c-0.1,0-0.3,0-0.5,0c-0.4,0-0.7,0.1-0.8,0.3c-0.2,0.2-0.3,0.5-0.3,1v0.4h2
			v1.5L136.1,6.3L136.1,6.3z"/>
		<path class="st1" d="M141.8,6.9v5.3H140V4.6h1.7v1c0.4-0.4,0.8-0.7,1.3-0.9s0.9-0.3,1.4-0.3v1.8c-0.6,0-1,0.1-1.4,0.2
			C142.6,6.5,142.2,6.7,141.8,6.9z"/>
		<path class="st1" d="M148,2.6c0,0.3-0.1,0.6-0.3,0.7s-0.4,0.3-0.8,0.3c-0.3,0-0.6-0.1-0.8-0.3c-0.2-0.2-0.3-0.4-0.3-0.7
			s0.1-0.6,0.3-0.7c0.2-0.2,0.4-0.3,0.8-0.3c0.3,0,0.6,0.1,0.8,0.3S148,2.3,148,2.6z M146.1,4.6h1.8v7.7h-1.8V4.6z"/>
		<path class="st1" d="M153,12.4c-1.2,0-2.1-0.3-2.7-1c-0.6-0.6-0.8-1.6-0.8-3c0-1.3,0.3-2.3,0.9-3c0.6-0.7,1.5-1,2.6-1
			c0.4,0,0.8,0,1.2,0.1c0.4,0.1,0.7,0.2,1.1,0.4l-0.6,1.4c-0.3-0.1-0.6-0.2-0.8-0.3c-0.3-0.1-0.5-0.1-0.7-0.1
			c-0.6,0-1.1,0.2-1.4,0.6c-0.3,0.4-0.4,1-0.4,1.8c0,0.8,0.1,1.4,0.4,1.8c0.3,0.4,0.8,0.5,1.4,0.5c0.3,0,0.5,0,0.8-0.1
			c0.3-0.1,0.5-0.1,0.8-0.3l0.5,1.4c-0.3,0.2-0.7,0.3-1.1,0.4C153.8,12.4,153.4,12.4,153,12.4z"/>
		<path class="st1" d="M162.8,7.3v4.9h-1.7v-0.8c-0.3,0.3-0.7,0.6-1,0.7c-0.4,0.2-0.8,0.3-1.2,0.3c-0.7,0-1.3-0.2-1.7-0.6
			c-0.4-0.4-0.6-1-0.6-1.6c0-0.7,0.3-1.3,0.7-1.7s1.2-0.6,2-0.6h1.7V7.4c0-0.5-0.1-0.8-0.3-1.1c-0.2-0.2-0.6-0.3-1.1-0.3
			c-0.3,0-0.7,0-1,0.1c-0.4,0.1-0.8,0.3-1.3,0.5l-0.6-1.4c0.6-0.3,1.1-0.5,1.6-0.6s1-0.2,1.5-0.2c1,0,1.7,0.2,2.2,0.7
			C162.6,5.7,162.8,6.4,162.8,7.3z M158.3,10.1c0,0.3,0.1,0.6,0.3,0.7c0.2,0.2,0.4,0.3,0.8,0.3c0.3,0,0.6-0.1,0.8-0.2
			c0.3-0.1,0.6-0.3,0.8-0.6V9.2h-1.6c-0.4,0-0.7,0.1-0.8,0.2S158.3,9.8,158.3,10.1z"/>
		<path class="st1" d="M166.4,6.9v5.4h-1.8V4.6h1.7v0.9c0.4-0.4,0.8-0.7,1.2-0.8c0.4-0.2,0.8-0.3,1.2-0.3c0.7,0,1.3,0.2,1.7,0.7
			c0.4,0.4,0.6,1.1,0.6,1.9v5.2h-1.8V7.3c0-0.4-0.1-0.7-0.3-0.9s-0.4-0.3-0.8-0.3c-0.3,0-0.6,0.1-0.9,0.2
			C167.1,6.5,166.8,6.6,166.4,6.9z"/>
		<path class="st1" d="M126.4,20.4v7.5h-1.7V18h2.2l2.5,5.4l2.4-5.4h2.1v9.9h-1.7v-7.5l-2.2,4.7h-1.5L126.4,20.4z"/>
		<path class="st1" d="M142.3,22.9v4.9h-1.7V27c-0.3,0.3-0.7,0.6-1,0.7c-0.4,0.2-0.8,0.3-1.2,0.3c-0.7,0-1.3-0.2-1.7-0.6
			c-0.4-0.4-0.6-1-0.6-1.6c0-0.7,0.3-1.3,0.7-1.7c0.5-0.4,1.2-0.6,2-0.6h1.7v-0.4c0-0.5-0.1-0.8-0.3-1.1s-0.6-0.3-1.1-0.3
			c-0.3,0-0.7,0-1,0.1c-0.4,0.1-0.8,0.3-1.3,0.5l-0.6-1.4c0.6-0.3,1.1-0.5,1.6-0.6s1-0.2,1.5-0.2c1,0,1.7,0.2,2.2,0.7
			C142,21.3,142.3,22,142.3,22.9z M137.7,25.7c0,0.3,0.1,0.6,0.3,0.7c0.2,0.2,0.4,0.3,0.8,0.3c0.3,0,0.6-0.1,0.8-0.2
			c0.3-0.1,0.6-0.3,0.8-0.6v-1.1h-1.6c-0.4,0-0.7,0.1-0.8,0.2C137.8,25.1,137.7,25.4,137.7,25.7z"/>
		<path class="st1" d="M146.3,22.5v5.4h-1.8v-7.7h1.7v0.9c0.4-0.4,0.8-0.7,1.2-0.8c0.4-0.2,0.8-0.3,1.2-0.3c0.7,0,1.3,0.2,1.7,0.7
			s0.6,1.1,0.6,1.9v5.2h-1.8v-5c0-0.4-0.1-0.7-0.3-0.9c-0.2-0.2-0.4-0.3-0.8-0.3c-0.3,0-0.6,0.1-0.9,0.2
			C147,22.1,146.7,22.2,146.3,22.5z"/>
		<path class="st1" d="M159.1,22.9v4.9h-1.7V27c-0.3,0.3-0.7,0.6-1,0.7c-0.4,0.2-0.8,0.3-1.2,0.3c-0.7,0-1.3-0.2-1.7-0.6
			s-0.6-1-0.6-1.6c0-0.7,0.3-1.3,0.7-1.7c0.5-0.4,1.2-0.6,2-0.6h1.7v-0.4c0-0.5-0.1-0.8-0.3-1.1c-0.2-0.2-0.6-0.3-1.1-0.3
			c-0.3,0-0.7,0-1,0.1c-0.4,0.1-0.8,0.3-1.3,0.5l-0.6-1.4c0.6-0.3,1.1-0.5,1.6-0.6s1-0.2,1.5-0.2c1,0,1.7,0.2,2.2,0.7
			C158.9,21.3,159.1,22,159.1,22.9z M154.6,25.7c0,0.3,0.1,0.6,0.3,0.7c0.2,0.2,0.4,0.3,0.8,0.3c0.3,0,0.6-0.1,0.8-0.2
			c0.3-0.1,0.6-0.3,0.8-0.6v-1.1h-1.6c-0.4,0-0.7,0.1-0.8,0.2C154.7,25.1,154.6,25.4,154.6,25.7z"/>
		<path class="st1" d="M167.3,22.6c0,0.8-0.3,1.4-0.8,1.9c-0.5,0.4-1.3,0.7-2.2,0.7c-0.1,0-0.3,0-0.4,0c-0.1,0-0.2,0-0.4,0l0,0
			c-0.3,0.1-0.4,0.2-0.6,0.3c-0.1,0.1-0.2,0.2-0.2,0.4c0,0.1,0.1,0.2,0.2,0.3c0.1,0.1,0.3,0.1,0.5,0.1h2c0.8,0,1.4,0.2,1.8,0.5
			c0.4,0.4,0.7,0.8,0.7,1.5c0,0.8-0.4,1.5-1.1,2c-0.7,0.5-1.7,0.8-2.8,0.8c-1,0-1.8-0.2-2.4-0.6c-0.6-0.4-0.9-0.9-0.9-1.5
			c0-0.3,0.1-0.6,0.3-0.9c0.2-0.3,0.5-0.5,0.9-0.6c-0.3-0.1-0.4-0.3-0.6-0.6s-0.2-0.4-0.2-0.7c0-0.3,0.1-0.6,0.3-0.9
			c0.2-0.3,0.5-0.4,0.8-0.6c-0.3-0.2-0.6-0.5-0.7-0.8c-0.2-0.3-0.3-0.7-0.3-1.2c0-0.8,0.3-1.4,0.8-1.9s1.3-0.7,2.2-0.7
			c0.3,0,0.5,0,0.7,0.1c0.2,0,0.4,0.1,0.7,0.2l2.2-0.8l0.5,1.5l-1.4,0.4c0.1,0.2,0.3,0.4,0.3,0.6C167.2,22.1,167.3,22.4,167.3,22.6z
			 M163,27.8c-0.2,0.1-0.4,0.2-0.4,0.4c-0.1,0.1-0.1,0.3-0.1,0.5c0,0.3,0.1,0.6,0.4,0.7c0.3,0.2,0.7,0.3,1.2,0.3
			c0.6,0,1.2-0.1,1.5-0.3c0.4-0.2,0.6-0.5,0.6-0.8c0-0.2-0.1-0.4-0.2-0.5c-0.1-0.1-0.4-0.2-0.7-0.2h-1.9c-0.1,0-0.2,0-0.3,0
			C163.1,27.8,163.1,27.8,163,27.8L163,27.8z M163,22.6c0,0.4,0.1,0.7,0.3,0.9s0.6,0.3,1,0.3c0.4,0,0.8-0.1,1-0.3
			c0.2-0.2,0.3-0.5,0.3-0.9c0-0.4-0.1-0.7-0.3-0.9c-0.2-0.2-0.6-0.3-1-0.3c-0.4,0-0.8,0.1-1,0.3C163.1,21.9,163,22.2,163,22.6z"/>
		<path class="st1" d="M175,26l0.6,1.4c-0.4,0.2-0.8,0.4-1.3,0.5s-1,0.2-1.4,0.2c-1.3,0-2.2-0.3-2.8-1s-0.9-1.6-0.9-2.9
			c0-1.3,0.3-2.2,0.9-3s1.5-1.1,2.5-1.1c1,0,1.7,0.3,2.3,0.9c0.6,0.6,0.8,1.4,0.8,2.5c0,0.1,0,0.2,0,0.3c0,0.1,0,0.2,0,0.3l-0.5,0.6
			H171c0,0.6,0.2,1.1,0.6,1.4c0.3,0.3,0.8,0.5,1.4,0.5c0.3,0,0.7,0,1-0.1C174.3,26.3,174.7,26.2,175,26z M172.6,21.6
			c-0.5,0-0.8,0.1-1.1,0.4c-0.3,0.3-0.4,0.7-0.5,1.3h3c0-0.6-0.1-1-0.4-1.3C173.4,21.7,173.1,21.6,172.6,21.6L172.6,21.6z"/>
		<path class="st1" d="M179.3,22.5v5.4h-1.8v-7.7h1.7v0.9c0.4-0.4,0.8-0.7,1.2-0.8c0.4-0.2,0.7-0.3,1.1-0.3c0.5,0,0.9,0.1,1.2,0.3
			c0.3,0.2,0.6,0.5,0.8,0.9c0.4-0.4,0.9-0.7,1.3-0.9c0.4-0.2,0.8-0.3,1.3-0.3c0.7,0,1.3,0.2,1.7,0.7c0.4,0.4,0.6,1.1,0.6,1.9v5.2
			h-1.8v-5c0-0.4-0.1-0.7-0.2-0.9c-0.1-0.2-0.4-0.3-0.7-0.3c-0.3,0-0.5,0.1-0.8,0.2c-0.3,0.1-0.6,0.3-0.9,0.6v5.4H182v-5
			c0-0.4-0.1-0.7-0.2-0.9c-0.1-0.2-0.4-0.3-0.7-0.3c-0.3,0-0.5,0.1-0.8,0.2C179.9,22.1,179.6,22.2,179.3,22.5L179.3,22.5z"/>
		<path class="st1" d="M195.9,26l0.6,1.4c-0.4,0.2-0.8,0.4-1.3,0.5c-0.5,0.1-1,0.2-1.4,0.2c-1.3,0-2.2-0.3-2.8-1s-0.9-1.6-0.9-2.9
			c0-1.3,0.3-2.2,0.9-3s1.5-1.1,2.5-1.1c1,0,1.7,0.3,2.3,0.9c0.6,0.6,0.8,1.4,0.8,2.5c0,0.1,0,0.2,0,0.3c0,0.1,0,0.2,0,0.3l-0.5,0.6
			h-4.2c0,0.6,0.2,1.1,0.6,1.4c0.3,0.3,0.8,0.5,1.4,0.5c0.3,0,0.7,0,1-0.1C195.2,26.3,195.5,26.2,195.9,26z M193.4,21.6
			c-0.5,0-0.8,0.1-1.1,0.4c-0.3,0.3-0.4,0.7-0.5,1.3h3c0-0.6-0.1-1-0.4-1.3C194.3,21.7,193.9,21.6,193.4,21.6L193.4,21.6z"/>
		<path class="st1" d="M200.2,22.5v5.4h-1.8v-7.7h1.7v0.9c0.4-0.4,0.8-0.7,1.2-0.8c0.4-0.2,0.8-0.3,1.2-0.3c0.7,0,1.3,0.2,1.7,0.7
			c0.4,0.4,0.6,1.1,0.6,1.9v5.2H203v-5c0-0.4-0.1-0.7-0.3-0.9c-0.2-0.2-0.4-0.3-0.8-0.3c-0.3,0-0.6,0.1-0.9,0.2
			C200.8,22.1,200.5,22.2,200.2,22.5z"/>
		<path class="st1" d="M209.4,20.2h2.3v1.5h-2.3v3.6c0,0.4,0.1,0.6,0.2,0.8c0.1,0.1,0.4,0.2,0.7,0.2c0.2,0,0.4,0,0.6-0.1
			c0.2,0,0.4-0.1,0.6-0.2l0.5,1.4c-0.3,0.2-0.6,0.3-0.9,0.4c-0.3,0.1-0.7,0.1-1,0.1c-0.8,0-1.4-0.2-1.8-0.7
			c-0.4-0.4-0.6-1.1-0.6-1.9v-3.7h-1.4v-1.3l1.5-0.2l0.4-1.9h1.3L209.4,20.2L209.4,20.2z"/>
		<path class="st1" d="M126.3,33.6v9.9h-1.1v-9.9H126.3z"/>
		<path class="st1" d="M130.3,37.9v5.6h-1.1v-7.4h1.1v1c0.5-0.4,0.9-0.7,1.3-0.9s0.8-0.3,1.3-0.3c0.7,0,1.3,0.2,1.6,0.6
			c0.4,0.4,0.6,1,0.6,1.8v5.1h-1.1v-5.1c0-0.5-0.1-0.9-0.3-1.1c-0.2-0.3-0.6-0.4-1-0.4c-0.4,0-0.7,0.1-1.1,0.3
			C131.1,37.3,130.7,37.6,130.3,37.9L130.3,37.9z"/>
		<path class="st1" d="M142.1,41.6c0,0.6-0.2,1.1-0.7,1.5c-0.4,0.4-1.1,0.6-1.8,0.6c-0.4,0-0.9-0.1-1.3-0.2
			c-0.5-0.1-0.9-0.3-1.3-0.6l0.4-0.9c0.4,0.3,0.7,0.4,1.1,0.6c0.4,0.1,0.7,0.2,1.1,0.2c0.4,0,0.8-0.1,1-0.3c0.2-0.2,0.4-0.4,0.4-0.8
			c0-0.3-0.1-0.5-0.3-0.7c-0.2-0.2-0.6-0.4-1.3-0.7c-0.9-0.4-1.4-0.7-1.7-1c-0.3-0.3-0.4-0.7-0.4-1.2c0-0.6,0.2-1.1,0.7-1.5
			c0.4-0.4,1-0.6,1.8-0.6c0.4,0,0.8,0.1,1.2,0.2c0.4,0.1,0.8,0.3,1.1,0.5l-0.5,0.9c-0.3-0.2-0.6-0.3-1-0.4c-0.3-0.1-0.6-0.1-0.9-0.1
			c-0.4,0-0.8,0.1-1,0.3c-0.2,0.2-0.4,0.4-0.4,0.7c0,0.3,0.1,0.5,0.3,0.7c0.2,0.2,0.6,0.4,1.3,0.7c0.9,0.4,1.5,0.7,1.7,1
			C141.9,40.7,142.1,41.1,142.1,41.6L142.1,41.6z"/>
		<path class="st1" d="M145.7,36.1h2.5V37h-2.5v4.4c0,0.4,0.1,0.8,0.3,1c0.2,0.2,0.4,0.3,0.8,0.3c0.2,0,0.4,0,0.6-0.1
			c0.2-0.1,0.4-0.1,0.7-0.3l0.4,0.8c-0.3,0.2-0.6,0.3-0.9,0.4c-0.3,0.1-0.6,0.1-0.9,0.1c-0.7,0-1.2-0.2-1.6-0.6
			c-0.4-0.4-0.5-0.9-0.5-1.7V37h-1.4v-0.7l1.4-0.2l0.3-1.9h0.8L145.7,36.1L145.7,36.1z"/>
		<path class="st1" d="M151.5,34c0,0.2-0.1,0.4-0.2,0.5s-0.3,0.2-0.5,0.2c-0.2,0-0.4-0.1-0.5-0.2c-0.1-0.1-0.2-0.3-0.2-0.5
			c0-0.2,0.1-0.4,0.2-0.5c0.1-0.1,0.3-0.2,0.5-0.2c0.2,0,0.4,0.1,0.5,0.2C151.4,33.6,151.5,33.8,151.5,34z M150.2,36.1h1.1v7.4h-1.1
			V36.1z"/>
		<path class="st1" d="M155.5,36.1h2.5V37h-2.5v4.4c0,0.4,0.1,0.8,0.3,1c0.2,0.2,0.4,0.3,0.8,0.3c0.2,0,0.4,0,0.6-0.1
			c0.2-0.1,0.4-0.1,0.7-0.3l0.4,0.8c-0.3,0.2-0.6,0.3-0.9,0.4c-0.3,0.1-0.6,0.1-0.9,0.1c-0.7,0-1.2-0.2-1.6-0.6
			c-0.4-0.4-0.5-0.9-0.5-1.7V37h-1.4v-0.7l1.4-0.2l0.3-1.9h0.8L155.5,36.1L155.5,36.1z"/>
		<path class="st1" d="M160,41.1v-5.1h1.1v5.1c0,0.5,0.1,0.9,0.3,1.1c0.2,0.3,0.6,0.4,1,0.4c0.3,0,0.7-0.1,1.1-0.3
			c0.4-0.2,0.8-0.4,1.2-0.7V36h1.1v7.4h-1.1v-1c-0.5,0.4-0.9,0.7-1.3,0.8c-0.4,0.2-0.8,0.3-1.2,0.3c-0.7,0-1.3-0.2-1.6-0.6
			C160.2,42.6,160,42,160,41.1L160,41.1z"/>
		<path class="st1" d="M170,36.1h2.5V37H170v4.4c0,0.4,0.1,0.8,0.3,1c0.2,0.2,0.4,0.3,0.8,0.3c0.2,0,0.4,0,0.6-0.1
			c0.2-0.1,0.4-0.1,0.7-0.3l0.4,0.8c-0.3,0.2-0.6,0.3-0.9,0.4c-0.3,0.1-0.6,0.1-0.9,0.1c-0.7,0-1.2-0.2-1.6-0.6
			c-0.4-0.4-0.5-0.9-0.5-1.7V37h-1.4v-0.7l1.4-0.2l0.3-1.9h0.8L170,36.1L170,36.1z"/>
		<path class="st1" d="M179.6,42.1l0.4,0.8c-0.3,0.2-0.7,0.4-1.2,0.5c-0.4,0.1-0.9,0.2-1.4,0.2c-1.1,0-2-0.3-2.5-1s-0.9-1.6-0.9-2.8
			c0-1.3,0.3-2.2,0.8-2.9c0.6-0.7,1.3-1.1,2.3-1.1c0.9,0,1.6,0.3,2.1,0.8c0.5,0.6,0.8,1.4,0.8,2.4v0.3c0,0.1,0,0.2,0,0.3l-0.3,0.4
			h-4.6c0,0.9,0.2,1.5,0.6,1.9c0.4,0.4,1,0.6,1.7,0.6c0.4,0,0.7,0,1.1-0.1C178.9,42.4,179.3,42.3,179.6,42.1z M177.2,36.9
			c-0.6,0-1.1,0.2-1.4,0.6c-0.3,0.4-0.5,1-0.6,1.8h3.9v0c0-0.8-0.1-1.4-0.4-1.7C178.3,37,177.8,36.9,177.2,36.9L177.2,36.9z"/>
	</g>
	<path class="st2" d="M95.8,9.6v26.7c0,5,4.1,9.1,9.1,9.1s9.1-4.1,9.1-9.1V15.2"/>
	<path class="st0" d="M11.6,13l11,26.8c1.9,4.6,7.2,6.9,11.9,5c4.6-1.9,6.9-7.2,5-11.9L32,14.7"/>
	<path class="st3" d="M28.5,6.1c-1.9-4.6-7.2-6.9-11.9-5s-6.9,7.2-5,11.9s7.2,6.9,11.9,5c2.4-1,8.4-3.4,10.3,1.2L28.5,6.1z"/>
	<path class="st4" d="M90.1,15c-0.4,0-1.5,0.5-2.3,1.3l-12.5,3.4v16.6c0,5,4.1,9.1,9.1,9.1s9.1-4.1,9.1-9.1V20.5
		C93.5,18.6,91.9,15,90.1,15z"/>
	<path class="st4" d="M45.3,15.4c-1.8,0-3.4-1.5-3.4,0.4v20.5c0,5,4.1,9.1,9.1,9.1s9.1-4.1,9.1-9.1v-9.4L47.6,15
		C46.8,14.2,45.7,15.4,45.3,15.4z"/>
	<path class="st5" d="M41.9,21.8c0-1.9,1.6-3.4,3.4-3.4c0.4,0,1.5,0.1,2.3,0.9l12.5,13.6l0.7,0.7c0.3,0.3,0.5,0.6,0.8,0.8
		c1.6,1.5,3.7,2.3,5.7,2.4h0.1h0.3H68h0.1c2.1-0.1,4.1-0.9,5.7-2.4c0.3-0.3,0.6-0.6,0.8-0.8l0.7-0.7l12.5-13.6
		c0.8-0.8,1.9-0.9,2.3-0.9c1.8,0,3.4,1.4,3.4,3.4V9.6c0-2.5-1-4.9-2.9-6.7c-3.7-3.4-9.5-3.1-12.8,0.6l-10,10.9l-10-10.9
		c-3.4-3.7-9.1-4-12.8-0.6c-2,1.8-3,4.3-2.9,6.7L41.9,21.8z"/>
	<path class="st6" d="M104.9,0.5c-5,0-9.1,4.1-9.1,9.1s4.1,9.1,9.1,9.1c2.6,0,9.1,0.2,9.1,5V9.6C114,4.5,109.9,0.5,104.9,0.5z"/>
</g>
</svg>
